<svg width="94" height="137" viewBox="0 0 94 137" fill="none" xmlns="http://www.w3.org/2000/svg">
<path d="M56.0928 96.8018C56.2028 95.4118 55.9028 94.9018 55.5828 94.7118C55.0928 94.4018 54.5528 94.8319 53.3028 94.6719C52.7628 94.6019 51.9928 94.5019 51.8828 94.1319C51.6628 93.3719 54.2228 91.8419 54.4528 91.7019C55.2828 91.2019 55.8128 91.0318 56.1728 90.3918C56.4828 89.8518 56.5028 89.2619 56.4728 88.8419C42.9528 63.7519 36.5628 55.2618 33.6828 54.1918C32.5928 53.7818 31.6428 53.3618 29.7228 52.5118C24.2828 50.1018 23.8928 49.4918 23.9528 49.2218C24.0828 48.7118 25.8728 49.2718 27.8928 48.0818C28.5328 47.7118 29.7928 46.9718 29.9128 45.8418C30.0428 44.5918 28.6528 44.0918 28.0328 42.1518C27.6728 41.0318 27.7628 40.0018 27.8828 39.3118C28.5228 40.3918 30.2428 42.9818 33.6028 44.5718C34.4728 44.9818 36.8528 46.0018 39.9028 45.8218C42.1028 45.6918 41.9528 45.1018 44.7728 44.6718C48.8028 44.0518 50.5028 45.0518 51.8628 43.6918C52.5128 43.0418 52.7328 42.2118 53.0728 40.9018C53.5028 39.2718 53.4128 37.9518 53.3528 37.1918C53.2228 35.5318 53.1328 34.3018 52.2128 33.2518C51.5528 32.4918 50.7328 32.1418 50.2228 31.9718C41.8828 28.2918 33.5428 24.6118 25.2028 20.9318C24.1628 20.2718 22.8428 19.6918 21.7428 20.1518C20.7728 20.5618 20.3728 21.6318 20.2728 21.8918C19.3928 24.0818 13.1328 32.9018 1.77277 48.0218C1.51277 48.2418 0.162767 49.4518 0.0127674 51.4918C-0.117233 53.2918 0.782768 54.5618 1.02277 54.8818C9.91277 68.1018 18.7928 81.3218 27.6828 94.5518C27.9128 95.2518 28.1328 96.1218 28.2628 97.1418C28.3728 98.0318 28.3728 98.8218 28.3428 99.4818C26.4428 111.932 24.5428 124.382 22.6428 136.832H53.1328C53.7128 124.842 54.5828 112.662 55.7528 100.322C55.8628 99.1418 55.9828 97.9718 56.0928 96.8018Z" fill="black"/>
<path d="M72.3627 72.8518C70.8427 71.0018 68.7327 68.7018 65.9627 66.3518C62.9427 63.7918 60.3527 62.2118 59.4527 61.6718C56.2227 59.7518 52.2727 57.4518 46.7827 56.6818C44.4827 56.3618 42.5627 56.4018 41.2927 56.4818C48.6127 69.1418 55.9327 81.8018 63.2427 94.4518C62.6527 94.3418 61.1227 94.1418 59.6027 94.9718C59.0727 95.2618 58.6727 95.6018 58.3727 95.9118C57.1827 109.552 56.0027 123.182 54.8127 136.822H74.3627C74.2327 126.102 74.0927 115.372 73.9627 104.652C74.0027 103.922 74.1127 102.722 74.5227 101.312C75.9127 96.5518 79.4027 93.7418 80.1427 93.0918C82.9427 90.6118 86.3627 83.4218 88.7627 62.2118C88.3927 62.0918 88.0227 61.9818 87.6527 61.8618C82.5527 65.5318 77.4627 69.1918 72.3727 72.8618L72.3627 72.8518Z" fill="black"/>
<path d="M65.3528 62.5819C65.2728 63.5419 65.9428 64.5219 67.0228 64.9819C68.4328 66.4119 69.8428 67.8419 71.2428 69.2619C71.3828 69.4219 72.1028 70.2119 73.2828 70.2619C74.3228 70.3019 75.3228 69.7419 75.8928 68.8019C81.9028 63.8019 87.9128 58.8019 93.9228 53.8119L93.8828 47.5919C91.8928 45.0719 89.8928 42.5419 87.9028 40.0219C87.8728 39.9819 87.2028 39.2319 86.2028 39.4019C85.2828 39.5619 84.8928 40.3519 84.8528 40.4319C78.5728 47.3619 72.2928 54.3019 66.0128 61.2319C65.8328 61.4119 65.4028 61.8919 65.3428 62.5919L65.3528 62.5819Z" fill="black"/>
<path d="M49.8427 55.0818C49.8827 55.3118 49.9727 55.6418 50.2327 56.0118C53.7327 57.5518 57.2227 59.0918 60.7227 60.6318C60.7827 60.6718 62.0127 61.4918 63.2227 60.9118C63.8027 60.6318 64.1027 60.1618 64.2327 59.9318C70.6827 52.7318 77.1327 45.5318 83.5827 38.3218C83.8227 37.9518 84.1327 37.3118 83.9927 36.6218C83.8527 35.9318 83.3127 35.5018 83.1327 35.3618C82.0427 34.4718 78.4927 30.9718 73.4927 26.0018C73.3427 25.8018 72.9727 25.3618 72.3827 25.2518C71.5127 25.0818 70.4927 25.7118 70.0227 26.8318C63.7927 35.3018 57.5727 43.7718 51.3427 52.2418C50.2827 52.9818 49.6727 54.0718 49.8427 55.0918V55.0818Z" fill="black"/>
<path d="M51.3328 47.1019C51.3328 47.1019 51.3328 46.6319 50.8128 46.1619C49.8428 45.2819 46.5028 46.6819 43.1328 47.0919C41.6128 47.2719 38.7628 47.3619 33.0628 47.5319C32.7228 47.5419 31.8228 47.5719 31.6728 47.9819C31.5328 48.3719 32.1228 48.9119 32.3728 49.1319C34.5028 50.1619 36.8128 51.1919 39.3128 52.1719C41.0528 52.8519 42.7328 53.4519 44.3528 53.9919C44.6228 54.0419 45.4428 54.1419 46.3028 53.6819C46.9628 53.3319 47.3228 52.8319 47.4728 52.5819C48.6028 51.0619 49.7228 49.5519 50.8528 48.0319C50.9828 47.9119 51.3228 47.5719 51.3228 47.1119L51.3328 47.1019Z" fill="black"/>
<path d="M45.3127 27.2118C45.5927 27.9718 46.4827 28.2518 47.2227 28.5318C47.2227 28.5318 49.3327 29.3018 51.8627 30.8118C53.5127 31.8018 54.4727 32.3718 54.9627 33.5218C55.4327 34.6318 55.2327 35.7718 54.8227 38.0618C54.4627 40.0718 53.9127 41.4718 54.5927 42.1318C54.6327 42.1718 54.8927 42.4218 55.2327 42.4018C55.6427 42.3818 56.0227 41.9618 56.2127 41.3418L69.0827 24.9418C69.6427 24.6018 69.9527 24.0118 69.8827 23.4218C69.8127 22.8618 69.4127 22.5318 69.3127 22.4518C65.4227 18.6718 61.5427 14.8918 57.6527 11.1118C57.5627 11.0418 56.9927 10.5718 56.2027 10.6918C55.2627 10.8318 54.8527 11.6618 54.8227 11.7318C51.7027 16.4318 48.5727 21.1218 45.4527 25.8218C45.2927 26.1818 45.1327 26.7118 45.3227 27.2218L45.3127 27.2118Z" fill="black"/>
<path d="M27.5929 19.7319L40.0629 25.0819C40.3429 25.1819 40.8529 25.3019 41.4629 25.2119C42.6229 25.0419 43.2929 24.2219 43.4529 24.0119C46.1929 19.9119 48.9429 15.8019 51.6829 11.7019C52.4529 11.0719 52.8028 10.1019 52.5528 9.23185C52.3228 8.41185 51.6428 8.00185 51.4728 7.91185C48.2628 5.51185 45.0629 3.11185 41.8529 0.711852C41.7229 0.581852 41.0629 -0.0381485 40.1029 0.00185152C39.1429 0.0418515 38.2729 0.721852 37.9229 1.73185C34.2629 6.69185 30.5929 11.6519 26.9329 16.6119C26.2929 17.0319 26.0029 17.8019 26.2029 18.5119C26.3829 19.1419 26.9329 19.6219 27.6029 19.7219L27.5929 19.7319Z" fill="black"/>
</svg>
