<svg width="197" height="123" viewBox="0 0 197 123" fill="none" xmlns="http://www.w3.org/2000/svg">
<path d="M196.289 11.0162C194.959 11.0162 192.619 7.01623 191.289 7.01623C190.959 5.01623 190.619 3.01623 190.289 1.01623H119.289L116.289 4.01623H92.2895C91.2895 2.68623 90.2895 1.34623 89.2895 0.0162264H25.2895C24.1295 -0.0437736 22.2295 0.0162264 20.2895 1.01623C19.7095 1.31623 17.4095 2.57623 15.2895 7.01623C13.1795 11.4462 13.0194 15.3262 12.8094 22.0762C12.6694 26.4362 12.6195 28.6462 13.2895 30.0162C15.4795 34.5162 20.1295 33.9262 24.2895 38.0162C29.3095 42.9462 29.2995 50.4262 29.2895 51.0162C29.1795 58.3662 23.8895 59.2962 15.2895 74.0162C14.0795 76.0862 11.8195 80.7262 7.28945 90.0162C7.04945 90.5062 5.45945 94.3462 2.28945 102.016C0.409452 106.556 -0.510548 108.876 0.289452 111.016C1.35945 113.866 4.61945 115.086 7.28945 116.016C30.0595 123.946 42.4195 122.436 45.2895 122.016C46.8095 121.796 48.9895 121.396 51.2895 120.016C55.5895 117.426 57.3695 113.176 58.2895 111.016C69.3695 85.0062 74.4295 84.2162 75.2895 74.0162C75.3895 72.8062 75.5295 70.2962 77.2895 69.0162C79.8295 67.1662 83.7395 69.3962 89.2895 71.0162C92.9195 72.0762 96.7095 72.3862 104.289 73.0162C116.759 74.0462 123.999 74.6462 129.289 70.0162C129.979 69.4062 133.229 66.5662 134.289 62.0162C135.439 57.0462 132.899 54.6862 134.289 49.0162C134.739 47.1862 135.509 44.0262 138.289 42.0162C142.289 39.1162 147.479 40.7462 148.289 41.0162C161.619 40.6862 174.959 40.3462 188.289 40.0162C188.959 39.0162 189.619 38.0162 190.289 37.0162C190.289 32.0162 194.289 34.0162 194.289 29.0162L196.289 11.0162ZM124.289 62.0162C123.219 63.7562 121.809 64.6762 121.289 65.0162C117.579 67.4062 113.359 66.5762 109.289 66.0162C95.0195 64.0662 93.7295 67.0962 89.2895 64.0162C85.4695 61.3662 81.5895 55.7762 83.2895 51.0162C84.3095 48.1662 86.9595 46.6562 88.2895 46.0162C88.4795 47.7862 89.1795 51.7062 92.2895 55.0162C93.0995 55.8762 96.8295 59.8462 100.289 59.0162C101.879 58.6362 104.289 57.0162 104.289 57.0162C100.269 53.5262 99.2895 52.0162 99.2895 52.0162C98.1995 50.3362 97.3295 47.6162 98.2895 43.0162C102.889 42.3562 111.719 41.3162 119.289 42.0162C120.799 42.1562 122.919 42.4262 124.289 44.0162C125.349 45.2462 125.269 46.4462 125.289 52.0162C125.309 58.7962 125.449 60.1462 124.289 62.0162Z" fill="black"/>
</svg>
