<svg width="183" height="161" viewBox="0 0 183 161" fill="none" xmlns="http://www.w3.org/2000/svg">
<path d="M0 72.5C0 95.14 18.36 113.5 41 113.5C63.64 113.5 82 95.14 82 72.5C82 64.04 79.44 56.18 75.05 49.65C78.6 43.87 82.15 38.09 85.7 32.3C82.86 30.54 80.02 28.79 77.18 27.03C79.81 25.25 82.43 23.47 85.06 21.69C85.69 22.17 86.83 22.91 88.44 23.3C89.86 23.64 91.07 23.57 91.82 23.46C97.72 22.82 103.61 22.17 109.51 21.53C115.67 26.09 121.84 30.64 128 35.2C128.37 35.42 128.91 35.68 129.61 35.84C130.25 35.99 130.81 36.02 131.22 36C131.65 40.72 132.08 45.43 132.51 50.15C132.65 51 132.98 52.3 133.8 53.69C134.86 55.49 136.23 56.54 137.02 57.07V61.73H125.93V81.43C111.11 87.61 100.69 102.23 100.69 119.29C100.69 141.93 119.05 160.29 141.69 160.29C164.33 160.29 182.69 141.93 182.69 119.29C182.69 103.43 173.68 89.67 160.5 82.85V61.73H148.28V56.75C149.01 56.43 150.34 55.74 151.5 54.34C152.99 52.55 153.33 50.64 153.43 49.84C152.89 42.34 152.36 34.83 151.82 27.33C151.69 26.63 150.9 22.65 147.16 20.26C144.52 18.57 141.87 18.59 140.89 18.65L123.04 5.13998C122.05 4.65998 120.81 4.18001 119.34 3.85001C118.65 3.70001 118.01 3.59 117.41 3.53C116.69 2.76 115.43 1.59999 113.55 0.799988C112.45 0.329988 111.45 0.11 110.66 0C103.16 0.86 95.65 1.72001 88.15 2.57001C87.35 2.77001 83.75 3.74998 81.72 7.22998C80.73 8.92998 80.49 10.58 80.43 11.57C76.15 14.74 71.87 17.91 67.6 21.09L56.64 14.31C53.1 20.15 49.56 25.98 46.03 31.82C44.4 31.62 42.73 31.52 41.05 31.52C18.41 31.52 0.05 49.88 0.05 72.52L0 72.5ZM141.5 91.31C156.86 91.31 169.32 103.76 169.32 119.13C169.32 134.49 156.87 146.95 141.5 146.95C126.14 146.95 113.68 134.5 113.68 119.13C113.68 103.77 126.13 91.31 141.5 91.31ZM145.2 29.73C145.41 33.8 145.63 37.88 145.84 41.95C145.33 41.85 143.54 41.59 141.66 42.59C139.72 43.63 138.96 45.33 138.77 45.81C138.56 42.17 138.34 38.52 138.13 34.88C138.97 34.41 140.67 33.3 141.99 31.18C143.32 29.04 143.55 27 143.6 26.03C143.89 26.25 144.5 26.76 144.89 27.64C145.29 28.55 145.25 29.37 145.21 29.73H145.2ZM116.9 18.64C117.54 17.94 118.32 16.93 118.99 15.58C119.81 13.94 120.13 12.44 120.28 11.4C124.73 14.78 129.18 18.15 133.63 21.53C133.15 22.13 132.64 22.88 132.18 23.78C131.19 25.71 130.85 27.51 130.73 28.76C126.12 25.38 121.51 22.01 116.9 18.63V18.64ZM95.03 12.85C94.91 11.23 93.85 9.79999 92.3 9.14999C98.25 8.39999 104.2 7.64999 110.15 6.89999C109.48 7.52999 108.32 8.80001 107.58 10.76C106.92 12.51 106.89 14.05 106.94 14.94L93.59 16.39C93.77 16.22 95.19 14.89 95.04 12.85H95.03ZM13.19 72.5C13.19 57.14 25.64 44.68 41.01 44.68C56.38 44.68 68.83 57.13 68.83 72.5C68.83 87.86 56.38 100.32 41.01 100.32C25.64 100.32 13.19 87.87 13.19 72.5Z" fill="black"/>
</svg>
