<svg width="294" height="453" viewBox="0 0 294 453" fill="none" xmlns="http://www.w3.org/2000/svg">
<path d="M248.96 40.91C220.72 14.16 183.4 -0.17001 143.85 0.51999C105 1.21999 68.76 16.29 41.86 43C14.93 69.66 0.220003 105.07 0.500003 142.62C0.730003 174.44 12.22 205.34 32.84 230.04C55.5 257.16 68.9 290.62 71.18 324.02V363.47H71.6V391.9C71.6 410.32 87.09 425.4 106.17 425.4H111.8C115.85 440.15 130.08 451.78 146.97 451.78C163.86 451.78 178.14 440.15 182.14 425.4H186.98C206.06 425.4 221.55 410.33 221.55 391.9V363.47H221.92V324.57C224.15 290.98 237.69 257.29 260.58 229.7C281.28 204.81 292.68 173.64 292.68 141.58C292.68 103.38 277.14 67.65 248.94 40.9L248.96 40.91Z" fill="black"/>
</svg>
