<svg width="414" height="52" viewBox="0 0 414 52" fill="none" xmlns="http://www.w3.org/2000/svg">
<path d="M414 10.95V41C414 41.67 413.93 42.32 413.79 42.95C412.75 47.86 407.84 51.6 402 51.6H319.44L277.05 52L239.25 51.34L225.24 50.09L209.68 48.81L196.59 46.6L166.86 41.42L120.7 36.8L98.22 34.92L76.98 33.88L22.69 31.31L5.65002 30.72L2.93002 29.93L0.17002 28.56L0.0200195 26.16V25.87L0.17002 23.47L2.93002 22.1L5.65002 21.32L22.69 20.72L76.98 18.15L98.22 17.11L120.7 15.23L166.86 10.61L196.59 5.42999L209.68 3.22L225.24 1.94L239.25 0.690002L277.05 0.0299988L312.85 0.37001H402C407.88 0.37001 412.8 4.15001 413.81 9.10001C413.94 9.71001 414 10.34 414 10.97V10.95Z" fill="black"/>
</svg>
